<?xml version="1.0" encoding="utf-8"?>
<svg xmlns="http://www.w3.org/2000/svg" version="1.1" id="Jammu_and_Kashmir" x="0px" y="0px" width="807.862px" height="790.854px" viewBox="0 0 807.862 790.854" enable-background="">
  <path fill-rule="evenodd" clip-rule="evenodd" fill="none" stroke="#000000" stroke-width="6" stroke-linejoin="round" stroke-miterlimit="3.8637" d="M 265.36 632.48 C 266.201 633.602 266.165 635.216 266.641 636.484 C 266.727 636.713 267.216 637.123 267.336 637.37 C 268.1 638.933 268.578 640.881 269.156 642.528 C 271.174 643.489 271.43 644.323 272.658 645.143 C 276.304 647.579 279.654 650.174 283.074 652.895 L 290.638 649.197 C 291.451 648.799 292.527 649.356 293.208 649.685 C 295.88 648.761 297.97 648.704 300.755 648.573 C 302.89 646.11 305.278 642.925 306.46 639.843 C 306.105 637.967 304.649 633.45 306.56 631.935 C 310.438 630.69 311.221 630.294 314.816 628.03 C 314.904 627.974 317.886 627.692 318.259 627.64 C 320.814 632.303 314.331 642.191 311.988 646.299 L 312.099 647.113 C 310.737 648.544 308.466 656.929 308.29 658.586 C 308.274 658.74 309.06 664.5 309.129 665.036 C 309.435 667.385 313.61 670.405 313.712 672.015 C 314.077 677.82 309.774 677.98 308.101 682.199 C 307.947 682.587 306.634 685.785 306.603 685.975 C 306.181 688.521 307.892 696.135 308.734 698.852 C 309.034 699.818 314.272 704.159 314.746 704.565 C 314.808 704.818 315.285 706.611 315.283 706.754 C 315.275 707.907 314.469 709.227 314.463 710.382 C 314.449 713.236 315.959 716.843 318.556 718.149 C 321.555 718.894 325.074 719.227 328.159 719.028 L 328.886 719.631 C 329.66 719.523 330.45 719.491 331.23 719.425 L 331.945 718.859 L 339.911 718.378 L 344.103 715.316 C 346.834 714.957 349.498 715.644 352.147 716.18 C 352.275 716.206 353.063 716.946 353.229 716.995 C 355.018 717.538 356.277 717.844 357.769 718.952 C 357.857 719.017 359.414 721.801 359.499 721.949 L 361.341 722.947 C 363.06 722.676 366.827 722.19 368.565 722.587 C 369.851 723.657 371.013 724.484 371.807 726.024 C 374.058 726.308 374.902 726.369 376.956 727.597 C 380.237 727.686 380.28 727.007 382.673 724.742 L 382.799 724.326 C 382.998 723.672 383.251 723.286 383.643 722.694 C 385.183 720.36 386.826 718.121 389.086 716.415 C 390.676 715.919 394.293 718.204 395.724 718.903 C 396.961 718.469 399.115 718.775 400.242 719.398 C 402.107 721.196 404.144 723.473 405.369 725.783 L 406.012 726.038 C 407.434 727.963 408.023 728.724 408.416 729.574 C 408.852 730.513 409.049 731.565 409.867 734.423 C 413.556 737.897 417.144 735.838 420.847 733.331 L 422.753 733.579 C 423.694 734.314 424.163 737.398 424.23 738.469 C 425.074 739.975 430.207 739.394 431.896 740.029 C 433.441 740.609 435.257 743.845 436.525 744.925 C 438.097 746.265 440.536 746.966 442.271 748.179 C 442.99 748.681 443.47 750.018 444.125 750.645 C 445.381 751.846 446.024 754.946 450.597 753.785"/>
  <path fill-rule="evenodd" clip-rule="evenodd" fill="none" stroke="#646464" stroke-width="4" stroke-miterlimit="3.8637" d="M 265.36 632.48 C 265.024 631.833 264.714 631.011 264.301 630.417 C 262.653 628.038 260.946 626.046 260.717 623.033 C 260.421 619.13 262.662 616.637 259.6 613.051 C 259.172 612.549 258.576 611.636 258.065 611.255 C 253.873 608.124 241.51 612.653 237.686 607.237 C 235.596 602.316 241.518 598.919 243.709 595.537 C 244.041 595.022 244.003 594.625 244.191 594.042 C 245.656 589.498 245.046 588.319 244.841 583.398 C 244.823 582.964 244.028 582.197 243.757 581.933 C 239.103 577.4 238.085 580.081 235.529 578.96 C 230.848 576.907 231.008 575.111 224.279 574.305 C 224.021 574.274 217.506 575.238 216.926 575.318 C 216.864 575.327 216.186 575.726 216.087 575.78 L 213.707 575.702 L 212.432 574.795 C 211.538 569.4 209.53 564.459 207.541 559.41 C 207.189 558.518 202.787 553.6 201.701 552.593 C 201.558 552.46 200.992 552.369 200.868 552.239 C 191.086 541.916 190.168 539.723 175.652 538.639 C 171.558 536.727 172.452 529.776 172.415 525.905 C 172.413 525.731 172.471 525.531 172.498 525.359 C 172.839 523.13 173.478 521.34 175.257 519.797 C 180.452 517.919 183.639 521.495 186.907 520.35 C 190.031 519.255 192.56 517.653 194.691 515.028 C 194.839 514.845 194.931 514.107 195.08 513.894 L 205.546 498.956 C 205.613 498.86 206.207 498.442 206.373 498.31 L 209.419 488.914 L 209.297 487.634 C 209.181 486.414 208.488 485.34 208.35 484.181 C 208.123 482.264 208.239 480.091 208.185 478.151 C 208.18 477.981 208.649 477.181 208.693 476.946 C 208.872 475.991 208.788 474.955 208.96 473.998 C 209.523 470.848 209.899 471.102 209.545 467.747 C 209.132 463.839 202.292 457.468 200.398 454.523 C 199.048 452.427 197.755 450.188 196.305 448.168 C 194.659 445.876 192.525 443.711 190.688 441.548 C 190.646 441.498 190.471 441.258 190.423 441.236 L 188.859 440.521 L 185.905 441.711 L 185.887 441.477 C 181.677 443.006 179.633 443.123 176.118 440.145 C 174.141 436.057 171.765 431.842 170.072 427.644 C 168.983 424.944 168.331 421.632 167.514 418.814 L 167.178 417.652 C 166.457 415.162 165.883 412.169 164.904 409.794 C 163.969 407.528 162.084 405.153 160.771 402.998 L 162.938 397.895 C 166.784 396.195 168.301 395.668 169.616 394.827 C 170.909 394.001 172.009 392.87 174.902 390.051 C 176.712 388.287 177.069 386.091 178.221 383.899 C 178.839 382.721 179.769 381.527 180.5 380.406 C 180.548 380.333 183.849 377.692 184.049 377.529 C 184.113 377.477 184.454 377.408 184.546 377.381 C 184.899 377.273 189.07 375.961 189.204 375.956 C 198.389 375.602 198.036 376.071 206.118 372.533 C 208.347 371.164 215.259 367.229 216.771 365.524 C 220.554 361.258 223.853 356.296 225.582 350.82 C 226.299 348.549 226.092 345.476 226.038 343.059 C 226.008 341.649 226.209 339.543 225.932 338.198 C 225.364 335.457 224.01 330.677 222.944 328.107 C 222.294 326.54 217.484 322.288 215.71 321.799 C 211.98 320.773 207.401 322.244 204.389 321.722 C 200.144 320.985 198.087 315.51 193.488 318.608 C 192.455 319.303 190.959 320.087 190.465 321.346 C 187.994 322.207 185.657 322.417 183.054 322.778 L 182.119 323.664 C 178.441 324.2 174.998 325.024 171.365 325.91 L 170.073 323.933 C 162.856 323.745 155.64 323.485 148.424 323.259 L 145.246 318.894 L 145.76 312.473 L 149.746 306.917 C 149.738 305.975 149.648 300.553 149.682 300.447 C 151.008 296.238 155.858 291.697 158.333 288.216 C 159.907 286.004 164.017 279.908 165.096 277.6 C 165.155 277.475 166.004 272.113 166.086 271.62 C 166.107 271.498 166.266 270.716 166.252 270.642 C 166.158 270.145 165.063 264.163 165.018 264.08 C 163.905 262.032 159.289 256.876 157.636 254.797 C 156.371 251.99 154.432 246.384 153.047 244.309 C 152.072 242.849 149.947 241.134 148.689 239.844 C 144.524 240.787 140.09 243.236 136.43 245.328 L 129.131 240.63 L 121.897 242.409 L 119.735 239.887 C 119.704 235.326 121.612 229.899 122.658 225.43 C 130.675 217.28 138.114 210.681 148.542 205.156 L 145.985 200.252 L 147.821 192.174 L 159.031 185.434 C 156.987 179.389 156.452 172.923 154.624 166.86 L 155.633 164.198 C 157.902 158.208 157.73 158.773 161.548 153.999 C 165.138 152.684 169.124 150.737 172.814 150.54 C 179.966 157.253 178.705 158.426 187.367 155.09 C 188.195 154.771 188.974 154.498 189.877 154.452 C 189.982 154.504 190.662 154.862 190.732 154.87 C 193.432 155.145 199.511 156.56 201.746 154.261 C 207.884 147.945 210.687 145.199 218.07 140.946 L 218.435 140.279 C 221.45 140.076 224.706 138.194 227.453 137.062 C 231.515 135.387 233.897 127.799 235.407 127.467 L 237.062 127.481 C 238.019 128.044 242.259 130.961 243.681 129.99 C 245.117 129.008 248.093 126.382 249.917 126.667 L 270.839 129.934 C 273.415 130.336 275.554 132.674 277.773 133.788 C 279.123 134.466 286.199 133.146 289.442 134.064 C 289.89 134.756 292.81 135.621 293.418 135.169 C 294.539 136.159 300.793 142.045 301.898 142.455 C 302.666 142.74 303.621 142.992 304.341 143.362 C 307.741 145.105 309.08 150.837 312.792 152.879 C 315.801 154.534 328.771 156.537 332.31 157.053 L 333.007 156.833 C 334.011 157.88 336.044 157.341 337.3 157.464 C 349.718 158.677 348.728 163.374 359.246 157.174 C 361.211 156.016 361.969 153.612 360.783 155.873"/>
  <path fill-rule="evenodd" clip-rule="evenodd" fill="none" stroke="#000000" stroke-width="6" stroke-linejoin="round" stroke-miterlimit="3.8637" d="M 458.536 188.366 C 459.906 188.227 465.985 196.249 461.852 197.69 C 457.719 199.131 457.852 199.94 458.852 202.94 C 459.852 205.94 461.352 209.94 458.852 211.44 C 456.352 212.94 455.352 214.94 455.352 217.44 C 455.352 219.94 454.352 220.19 456.852 222.19 C 459.352 224.19 461.852 226.44 461.852 226.44 L 464.352 229.19 C 464.352 229.19 460.352 231.19 462.602 233.69 C 464.852 236.19 465.352 237.19 465.352 239.19 C 465.352 241.19 464.602 243.19 466.102 245.19 C 467.602 247.19 468.102 248.69 468.102 248.69 C 468.102 248.69 468.102 254.19 468.102 255.44 C 468.102 256.69 469.102 258.44 472.102 258.44 C 475.102 258.44 477.102 258.19 478.602 258.19 C 480.102 258.19 485.352 259.19 485.602 262.69 C 485.852 266.19 486.102 266.94 487.352 268.69 C 487.751 269.249 488.227 270.011 488.689 270.791 C 488.689 270.791 492.62 271.219 495.62 272.219 C 498.62 273.219 502.453 276.718 504.287 276.552 C 506.121 276.386 508.12 275.886 508.12 275.886 C 508.12 275.886 510.12 281.719 514.287 279.719 C 518.454 277.719 522.62 274.553 524.12 276.886 C 525.62 279.219 526.62 279.552 528.62 279.052 C 530.62 278.552 530.62 278.552 530.62 278.552 C 530.62 278.552 531.12 285.386 531.62 287.386 C 532.12 289.386 530.62 290.219 529.953 291.219 C 529.286 292.219 526.787 292.72 527.62 293.386 C 528.453 294.052 538.12 304.886 538.12 304.886 L 543.12 311.386 L 542.62 316.386 L 548.62 316.552 L 548.62 320.386 L 559.62 329.219 L 564.12 329.719 L 559.852 339.691 L 564.286 343.219 C 564.286 343.219 568.286 339.386 571.453 339.386 C 574.62 339.386 577.953 339.053 580.286 339.886 C 582.619 340.719 589.953 342.386 589.953 342.386 C 589.953 342.386 591.953 337.719 595.62 337.719 C 599.287 337.719 602.62 335.886 602.62 335.886 C 602.62 335.886 605.453 345.885 606.453 346.552 C 607.453 347.219 607.287 349.219 606.62 349.719 C 605.953 350.219 604.787 351.552 604.787 351.552 C 604.787 351.552 615.454 355.719 617.954 357.219 C 620.454 358.719 625.454 360.719 626.287 361.719 C 627.12 362.719 631.954 375.053 631.954 375.053 C 631.954 375.053 632.454 378.053 632.621 380.386 C 632.788 382.719 634.288 383.553 635.121 383.053 C 635.954 382.553 638.788 382.387 639.621 385.053 C 640.454 387.719 643.621 393.386 643.621 393.386 C 643.621 393.386 650.788 392.887 652.954 395.553 C 655.12 398.219 655.621 399.719 655.121 401.386 C 654.621 403.053 652.288 410.552 655.121 413.719 C 657.954 416.886 658.621 418.053 658.621 418.053 L 654.788 422.219 L 646.455 426.552 C 646.455 426.552 649.288 430.053 649.455 431.386 C 649.622 432.719 648.622 433.219 648.622 433.219 C 648.622 433.219 645.789 432.719 647.289 435.219 C 648.789 437.719 647.289 438.718 646.122 439.552 C 644.955 440.386 641.122 440.552 641.955 441.052 C 642.788 441.552 645.288 448.385 647.955 447.552 C 650.622 446.719 650.955 442.386 655.455 442.886 C 659.955 443.386 664.621 440.719 663.288 438.719 C 661.955 436.719 659.788 431.886 663.788 432.386 C 667.788 432.886 672.955 432.052 672.955 432.052 C 672.955 432.052 675.621 435.885 677.288 437.052 C 678.955 438.219 679.288 439.386 679.288 439.386 C 679.288 439.386 678.587 445.995 681.354 446.941 C 684.121 447.887 688.288 449.22 688.955 449.386 C 689.622 449.552 692.288 443.386 692.288 443.386 L 697.288 447.386 L 696.788 451.886 C 696.788 451.886 702.955 455.385 704.455 457.052 C 705.955 458.719 712.587 467.329 713.604 467.691 C 714.621 468.053 719.288 469.219 719.288 469.219 L 721.788 477.886 L 724.122 478.886 L 728.788 475.719 L 731.622 475.719 C 731.622 475.719 734.122 488.053 735.455 489.386 C 736.788 490.719 738.622 497.886 741.955 500.386 C 745.288 502.886 746.622 503.053 746.622 503.053 C 746.622 503.053 749.788 502.553 750.455 502.553 C 751.122 502.553 753.788 506.719 753.955 508.719 C 754.122 510.719 754.288 517.385 754.955 518.719 C 755.622 520.053 756.788 523.052 758.288 523.219 C 759.788 523.386 764.122 523.886 764.122 523.886 L 764.532 524.634 C 765.373 525.659 766.254 526.54 766.854 526.941 C 768.354 527.941 771.104 531.691 771.104 531.691 L 767.357 537.003"/>
  <polyline fill-rule="evenodd" clip-rule="evenodd" fill="none" stroke="#000000" stroke-width="6" stroke-miterlimit="3.8637" points="196.04 45.191 198.485 48.043 201.774 50.328 207.201 53.157 217.113 52.844 219.815 56.287 224.019 63.484 230.326 63.17 234.23 59.103 240.237 58.164 245.943 60.043 252.251 58.476 254.954 52.531 262.761 47.21 265.765 40.013 269.068 40.327 269.969 45.646 277.478 45.96 280.78 48.149 282.284 53.157 286.789 55.973 287.389 60.98 286.188 64.736 292.195 71.62 294.597 70.994 297.3 74.125 295.498 76.628 293.997 84.451 293.696 99.473 295.798 99.783 300.303 96.656 303.306 96.656 309.314 99.783 315.32 99.783 318.923 106.67 321.026 107.608 322.226 112.302 326.432 111.05 328.533 115.744 334.541 120.752 335.741 128.576 338.444 134.834 345.053 135.46 351.66 142.345 362.14 157.341"/>
  <path fill-rule="evenodd" clip-rule="evenodd" fill="none" stroke="#000000" stroke-width="6" stroke-miterlimit="3.8637" d="M 449.068 754.03 C 457.737 752.998 465.796 753.274 474.445 753.814 C 476.513 753.943 477.702 753.819 479.749 754.145 C 482.284 754.549 486.193 756.281 488.729 757.122 C 486.801 762.084 485.463 767.422 484.112 772.56 L 490.016 775.052 L 495.661 770.074 L 495.45 757.913 L 496.618 756.742 C 498.593 755.245 500.595 753.78 502.536 752.241 C 504.259 750.877 505.765 749.031 507.679 747.937 L 507.998 747.801 L 509.167 747.285 L 512.645 745.764 L 516.111 744.259 L 517.265 743.762 C 518.734 743.134 522.23 742.573 525.544 742.115 C 528.95 741.645 532.165 741.28 532.796 740.589 C 535.881 737.211 537.015 735.947 537.858 734.89 C 538.952 733.518 539.307 732.292 540.21 727.45 C 544.98 725.138 558.343 718.4 560.779 716.277 C 560.779 716.277 561.416 715.426 561.821 714.786 L 564.793 710.061 L 565.31 709.227 C 567.086 706.335 567.726 702.329 569.083 699.215 C 570.211 696.63 571.719 694.052 573.05 691.527 L 579.279 688.972 L 580.11 686.485 L 580.265 683.501 L 580.607 677.532 C 580.373 676.211 577.121 670.109 577.014 669.08 C 576.587 664.95 578.634 659.344 578.297 655.156 C 578.291 655.084 574.932 642.389 574.852 642.198 C 573.678 639.401 570.513 635.632 568.931 632.839 L 565.505 626.054 C 564.837 624.732 564.737 623.803 563.791 622.662 C 562.138 620.666 554.565 614.698 552.22 612.674 L 551.292 608.728 C 555.835 606.271 564.657 605.003 569.685 605 C 578.963 613.628 575.16 611.099 587.734 616.381 C 591.113 613.648 594.459 610.723 597.939 608.128 C 600.714 606.06 603.865 604.408 606.611 602.307 L 612.358 597.366 C 613.478 596.402 614.297 596.041 615.232 594.895 C 615.633 594.403 619.973 586.274 620.565 585.198 C 625.513 583.675 630.663 582.923 635.757 582.095 C 637.318 581.841 638.267 581.969 639.759 581.446 C 639.81 581.427 649.829 575.727 650.038 575.575 L 653.531 571.908 C 654.212 571.192 654.859 570.969 655.278 570.074 C 656.29 567.912 658.333 558.999 659.096 556.23 C 663.184 553.534 667.441 550.245 671.716 547.905 L 680.708 543.927 C 682.462 543.151 683.321 542.297 685.206 541.938 L 695.938 542.147 C 705.024 542.325 714.066 543.204 723.09 544.25 L 737.625 545.934 L 746.717 545.133 L 751.264 544.733 L 760.69 537.298 L 767.227 537.816 L 770.165 533.302"/>
  <path fill-rule="evenodd" clip-rule="evenodd" fill="none" stroke="#000000" stroke-width="6" stroke-miterlimit="3.8637" d="M 198.733 47.71 C 191.819 40.712 189.24 48.021 185.943 51.442 C 183.601 53.874 181.801 57.631 183.295 61.067 C 184.499 63.833 188.756 66.854 188.612 70.137 L 189.109 70.372 C 186.638 75.26 184.23 74.628 181.939 77.508 C 180.851 80.328 182.575 84.674 181.053 87.853 C 179.052 92.035 174.995 94.991 172.255 98.626 C 169.161 102.73 169.446 108.334 164.872 111.735 C 162.524 113.48 159.073 113.394 156.72 114.924 C 156.585 115.012 156.172 115.689 156.013 115.845 C 153.778 118.033 151.82 120.817 148.458 121.231 C 143.855 121.797 138.812 119.654 134.755 120.663 C 132.542 121.213 130.569 125.317 127.43 126.617 C 124.922 127.655 121.474 126.348 119.107 127.679 C 116.619 129.076 111.722 133.081 110.659 135.901 C 110.125 137.316 109.144 141.892 108.654 143.837 C 108.197 145.65 106.434 146.855 105.875 148.516 C 104.595 149.047 103.619 150.204 102.51 150.995 C 100.392 152.508 97.811 153.989 98.024 157.09 C 98.424 159.153 100.537 160.601 100.797 162.972 C 101.343 167.915 99.883 170.742 98.535 175.326 C 97.656 178.317 96.105 187.294 91.701 187.775 C 87.195 188.268 85.305 181.681 81.136 181.681 C 76.626 181.681 71.045 185.601 67.907 185.577 C 62.944 185.539 52.199 183.626 51.307 191.317 C 50.609 197.348 50.12 203.351 49.362 209.388 C 49.204 210.639 48.247 213.202 47.765 214.348 C 45.809 219.009 42.727 224.684 42.454 229.869 C 41.933 239.818 41.879 247.606 49.008 255.238 C 50.355 256.68 52.002 257.726 53.485 258.965 L 53.458 261.447 L 53.641 265.699 L 53.788 266.469 C 56.798 275.128 59.011 282.825 58.318 291.862 C 57.889 297.457 58.571 298.982 59.797 303.872 C 60.045 304.858 60.022 305.951 60.276 306.935 C 61.1 310.144 62.04 312.756 62.391 316.176 C 62.989 321.985 62.754 323.483 64.12 329.372 C 65.099 333.592 67.279 337.095 68.263 341.31 C 69.653 347.258 71.885 347.837 74.858 352.039 C 80.61 360.17 79.811 362.097 77.237 371.453 C 70.631 395.473 83.313 388.614 82.106 408.358 C 81.987 410.305 81.745 411.116 80.45 412.317 L 79.579 413.12 C 76.511 416.003 75.79 417.99 77.045 422.473 C 72.845 432.325 80.366 429.111 82.138 433.17 C 84.82 439.316 84.693 437.481 87.772 441.772 C 86.391 445.594 87.501 447.334 88.701 450.623 C 87.129 451.581 85.705 453.273 85.002 454.813 L 84.779 455.605 L 84.13 460.92 C 83.813 463.514 87.344 466.661 87.936 469.161 L 87.725 469.716 C 82.591 471.83 80.663 473.475 81.28 479.348 C 76.788 484.683 74.798 488.673 77.241 495.507 C 78.423 498.815 78.538 503.074 82.802 502.873 C 81.21 509.041 85.585 522.363 85.663 522.833 C 86.181 525.881 84.978 527.349 87.547 529.872 C 86.88 533.574 89.744 536.735 93.566 535.08 C 93.505 535.243 95.232 537.449 95.367 537.83 C 95.49 539.642 95.824 545.392 95.262 546.797 C 94.371 547.215 89.826 550.047 89.428 550.781 L 88.858 551.808 C 87.895 553.549 87.195 558.975 87.759 560.964 L 88.03 561.889 L 88.468 563.339 C 89.206 565.87 94.945 568.103 97.199 568.735 C 105.228 570.991 108.143 572.31 115.911 575.685 C 116.735 576.422 117.897 578.443 118.708 580.053 L 121.978 580.701 C 123.953 581.069 127.309 583.358 128.793 584.478 C 129.717 584.41 131.508 584.176 132.339 583.7 C 134.785 582.295 137.351 581.054 139.777 579.661 C 139.946 579.564 140.339 579.067 140.484 579.022 C 143.973 577.947 147.151 576.645 150.782 577.462 L 153.302 578.029 C 154.747 578.723 156.445 580.215 157.788 581.149 C 158.84 581.88 164.251 592.553 164.64 593.197 C 165.312 594.311 166.757 595.345 167.179 596.525 C 168.681 597.022 170.702 599.095 172.398 599.975 C 177.086 602.406 181.534 603.767 186.611 605.17 C 187.972 605.547 189.466 606.709 190.644 607.415 C 191.66 608.024 192.646 609.026 193.634 609.565 C 194.948 610.283 196.474 610.755 197.828 611.408 C 200.587 612.736 203.09 614.548 205.86 615.872 C 210.018 617.858 214.42 619.808 218.321 622.25 C 220.565 623.655 222.81 625.202 225.114 626.503 C 226.118 627.07 227.325 627.398 228.36 627.92 C 230.975 629.237 233.698 630.723 236.155 632.359 C 236.589 632.647 238.915 633.898 239.403 633.872 L 265.362 632.475"/>
  <path fill-rule="evenodd" clip-rule="evenodd" fill="none" stroke="#646464" stroke-width="1.5591" stroke-linejoin="round" stroke-miterlimit="3.8637" d="  M207.953,481.219c0,0,3.833-3.333,4-4.333s4.333-6.167,4.5-8s3-9.833,2.5-11.5s-1.833-3-2.833-5.667s1-5.166,1-5.166  s4.333-0.167,5.667-0.5s4.333,1.166,7,1.5s3.833-0.667,5-2.667s1-2.333,2.667-3.5s3.167-1,5.333-0.667s4-2.5,4-2.5  s7.167,1.667,12,2.667s5.167,5,5.167,5s3.167,3.833,6.833,5.5s7,7,7,7s2.167,5.167,4,6.667s4.333,3.166,4.833,2.833  s-0.667-5.5-0.667-5.5s2-0.167,5-0.333s1.833-1.334,1.899-2.612s-0.399-1.888,1.434-2.388s2.167,0.333,4.167,1.5l6.899,2.388  c0,0,0.601,3.278-0.232,5.445s-1.333,2.333-3.333,2.333s0.167,4.834,0.167,4.834s5.667,1.666,8.333,1.833s3.5,3.5,3.333,5  s1.167,9.333,1.5,11.5s1.667,3.5,0.333,4.833s-6.333,2-6.333,2s0.167,3.334,0.5,5.667s3.667,6.5,3.667,6.5l-4,7.167l3.333,2.333  l5.333,3.833l-1.667,12.833c0,0-3,2.667-5.167,3s-3.333-2.5-5.5-3.666s-3.667-0.167-4.833,1.166s-1.667,0-4-1.166s-5-1.667-5.167,2  s-4.333,1.333-7.667,0.166s-2.667,2.834-1.5,3.667s2.5,2.333,5.167,3.5s6.5,2,8.833,2s3.5,0.333,5.833,1.667  s1.833,4.166,0.667,5.166s0.333,4,1.5,6s1,3.667-2.5,3.667s-3.601,0.722-4.167,3.5s-4,2.667-6.5,2.667s-1,5.833-0.333,7  s2.5,5.833,2.333,8.166s-2.833,3.667-5.333,4.834s-2.667-2.334-3.833-4.5s-3-2-6.5-1.834s-6.333,0.334-10.167,0.5  s-0.833,3.5-4.167,4.167s-2.833,2.167-4.667,4s-5,3.667-8.333,5.667s-8-0.5-8-0.5"/>
  <path fill-rule="evenodd" clip-rule="evenodd" fill="none" stroke="#646464" stroke-width="1.5591" stroke-linejoin="round" stroke-miterlimit="3.8637" d="  M293.12,456.719c0,0-0.833-3.5-3.5-4s-4.333-1.001-5.333-3.167s-5.167-4.166-3-5.666s0.833-3.666,0-6.5s-0.667-4.834,0.333-6.667  s-1.333-6.167,1-8.167s3.333-5.499,3.333-7.666s1.334-3.666-2.333-6s-5.333-5.001-8.333-7.334s-6.333-6.5-6.333-6.5l-2.333-3.666  l3.667-5.167c0,0-6-3.667-6.167-7s-1.333-5.5-3.5-6.5s-4.334-7.499-3.667-10.333s1.667-6.834,1.667-6.834s-4.167-5.832-5.5-8.166  s-2.5-4.834-6.5-5.167s-7.833,1.167-9-0.833s-3.333-9.5-3.333-9.5l-9.5,2.166"/>
  <path fill-rule="evenodd" clip-rule="evenodd" fill="none" stroke="#646464" stroke-width="1.5591" stroke-linejoin="round" stroke-miterlimit="3.8637" d="  M291.657,579.294l5.305-0.796c0,0,0.398,1.856,1.592,3.315s1.459,2.653,0.398,3.979s-1.194,1.326-0.133,2.52s0.53,1.99,0.663,4.643  s0.133,7.427,0.133,7.427s3.846-3.714,5.703-4.377s3.183-3.448,3.183-3.448s-4.376-4.244-4.774-4.907s-1.061-3.581-0.796-5.04  s0-3.051,2.52-2.122s3.581,0.663,3.581,0.663s4.907-3.449,4.907-5.306s0.132-4.243,2.52-3.713s5.306,1.591,5.306,1.591  s2.785,0.796,3.448,0s1.989-1.194,3.846-0.796s5.969,2.123,5.969,2.123s0.266,2.254,1.194,3.05s4.111,1.459,4.111,1.459  s3.184,6.765,4.51,8.224s2.387,2.785,4.509,2.652s3.449-0.795,4.51,1.857s2.652,5.703,2.652,5.703l3.183,0.265l1.99,9.02  c0,0,3.448-1.062,3.846,0.663s1.989,5.438,2.918,6.632s2.653,1.459,2.653,1.459l4.244-2.785l1.061-8.091l2.255-1.326  c0,0,1.857,5.438,3.714,6.499s4.509,5.57,4.509,5.57l21.619,16.711l3.05,2.521l-0.53,3.846c0,0,3.152,3.008,4.826,2.963  s1.938,1.945,2.336,2.608s2.388,3.183,0,3.448s-2.898-0.368-3.836,0.943s-2.928,4.494-2.928,4.494l-3.713-0.663l-4.51,5.173"/>
  <path fill-rule="evenodd" clip-rule="evenodd" fill="none" stroke="#646464" stroke-width="1.5591" stroke-linejoin="round" stroke-miterlimit="3.8637" d="  M356.514,718.294l3.979-9.417l5.835-0.398l-2.785-2.785l-0.265-5.438c0,0,3.979,3.182,5.703,1.591s1.724-1.591,1.724-1.591  l-2.122-3.184c0,0,6.366,2.123,6.764-0.397s0.265-5.57-1.459-5.173s-4.111,0.53-4.111,0.53l-2.653-1.725l2.653-3.846l-3.846-3.847  c0,0-3.316,7.826-3.847,7.561s-2.52-2.255-2.52-2.255s1.99-6.234,2.255-8.356s0.663-2.652,2.918-4.244s6.5-5.173,8.754-5.703  s2.918-1.592,3.183-4.377s-0.531-4.51-0.531-4.51s2.255-2.388,4.51-2.652s3.05-3.448,3.183-4.244s1.591-1.459,1.989-1.326  s1.725,3.315,1.725,3.315l6.101,1.062l1.326-2.918c0,0,1.326,0,3.581,0.663s4.376,3.315,5.305,4.774s2.918,1.593,4.377,1.99  s4.112,0.795,5.306-0.664s2.652-2.785,4.907-2.652s3.051,0.929,3.051,1.592s0.53,3.315,0.53,3.315l2.387,1.725  c0,0,2.918,2.918,4.377,2.918s2.521-0.266,2.786,1.989s-0.796,5.04-0.796,5.04h-2.122c0,0-2.652,1.724-2.918,2.652  s-0.663,3.714-0.663,3.714l8.09-0.132l1.99-5.173c0,0,3.051,1.193,4.642,1.326s4.642,1.592,4.642,1.592l2.653-2.521  c0,0,2.52,0.132,4.244-0.929s4.244-2.652,5.172-2.652s1.99,1.061,3.449,1.193s2.388-1.855,2.918-3.05s0.53-2.123-0.133-3.449  s0.398-3.315,0.398-3.315s2.618,1.543,2.702,3.026s-0.712,2.678-0.049,3.738s1.724,1.724,1.724,1.724s3.448-3.714,3.846-3.581  s3.449,4.643,3.449,4.643l2.122-2.785l3.979,2.255c0,0,3.05,0.265,3.979-3.979s0.796-7.029,0.796-7.029l0.796-5.173l1.326-2.387  l0.796-6.499l12.202-1.857l1.99,3.448c0,0,1.326-0.53,2.387,0.796s2.653,3.448,2.653,3.448s-0.398-5.039,2.785-5.968  s3.316-2.123,5.836-1.857s7.427,0.531,8.621-0.928s1.326-3.184,1.326-3.184s4.509-1.194,3.979-4.51s-1.724-3.714-1.724-3.714  s3.448-4.376,1.724-6.631s-3.448-5.969-3.448-7.428s-3.581-13.131-3.581-13.131s-4.509-1.724-7.56-2.52s-5.438-2.918-5.438-2.918  s-2.652,1.326-3.183-0.266s-1.061-2.785-1.061-2.785l-3.979-1.459c0,0-2.255,3.448-3.316,3.581s-1.99,0.53-2.388,0.53  s-1.856-2.521-3.315-2.122s-6.897,0.796-6.897,0.796s-3.581-0.664-5.173-1.725s-2.387-2.652-2.387-2.652s-2.918-2.254-3.316-3.448  c0,0-0.4-0.812-2.567-2.312s-3.167-7-3.667-9.5s-0.5-7.334-0.5-7.334s-4-2.499-6.5-2.666s-1.833,1.167-5.333-0.5s-4-3.5-6-4.667  s-3.833-3.833-5.667-2s-3.333,2.333-7,2s-6-1.667-4.667-4.667s2-10.999-2.333-11.666s-4.5-0.667-6.167-0.167  s-2.167,0.833-2.667,0.833s-4.333-5.334-6.333-7s-1.5-0.999-5-1.166s-6.333-3.334-6.333-3.334s-2,4.166-2.667,5.5  s-2.666,3.667-4.333,4.667s-3.167,1.5-3.167,1.5s-3.833,9.833-4,11s0.167,3.334,2.667,3.667s5.666,3,6.833,4s3,2.666,2,4.333  s-3.166,2.666-4.833,1.833s-4-0.332-4.667-0.166s-3.333,1.333-3.333,1.333s1.5,2.167,2.333,3s1,3.833,1,3.833s-5,2.666-5.5,3  s-2.667,0.834-2.667,0.834l0.5,4.833l-2.833,8.333c0,0,1.5,3,3,4.5s-1.166,1.167-2.333,1.167s-3.167,0.667-3.167,0.667"/>
  <path fill-rule="evenodd" clip-rule="evenodd" fill="none" stroke="#646464" stroke-width="1.5591" stroke-linejoin="round" stroke-miterlimit="3.8637" d="  M423.891,736.465l9.151-3.979c0,0-1.193-5.173,0.531-6.499s3.979-4.908,4.775-6.632s1.591-8.223,1.591-8.223l3.979-1.194  c0,0-4.377-4.643-4.775-5.04s-0.53-1.592,0.796-2.122s1.194-2.388,1.459-3.581s1.459-4.906,4.908-3.979s5.835,1.061,5.835,1.061  s2.254-1.458,3.581-1.724s2.653-2.52,1.592-4.377s-3.448-6.633-4.907-6.897s-5.04,0.134-6.499-1.061s-1.459-3.581-1.459-3.581"/>
  <path fill-rule="evenodd" clip-rule="evenodd" fill="none" stroke="#646464" stroke-width="1.5591" stroke-linejoin="round" stroke-miterlimit="3.8637" d="  M528.142,623.197l2.255-1.592l0.663-2.918c0,0,1.458-0.796,5.305,0s5.835,1.192,7.162-0.398s3.581-3.05,5.836-2.652  s6.101-0.663,6.101-0.663"/>
  <path fill-rule="evenodd" clip-rule="evenodd" fill="none" stroke="#646464" stroke-width="1.5591" stroke-linejoin="round" stroke-miterlimit="3.8637" d="  M403.453,539.718l-2.167-3.833c0,0-4.167-0.666-6.167-1s-3.167-1-3.167-1s0.5-3.5,1.667-4s1-3.833-0.333-4s-4.833-0.833-4.667-1.5  s0.833-7.667,1-8.167s-1.167-8.833-1.167-8.833l2.667-7.5l5.667-4c0,0-9.167-11.834-10-13.167s0-3.167,1.167-4.5  s3.333-3.333,3.333-3.333s-0.667-3.334-1.333-4.167s-2.167-7.333-2.167-7.333l-0.167-3.167c0,0,1.167-2.499,4-1.833s9.5,2.5,9.5,2.5  l3.333-2.5c0,0-3-4.667-3.833-5.667s-2.167-5.333-2.167-5.333l7-6.667l2.667-5.833l5,4l-2.667,1.5l0.833,2.5l3.5-0.667l1.667,2.833"/>
  <path fill-rule="evenodd" clip-rule="evenodd" fill="none" stroke="#646464" stroke-width="1.5591" stroke-linejoin="round" stroke-miterlimit="3.8637" d="  M304.453,460.718l4.5-4.833c0,0,1,1.999,3.833,2.166s2.833,0.167,2.833,0.167s2.166-4.334,4.333-4.667s2.833-0.333,4.833,1.167  s4.167,4.333,6.5,5.833s2.333,2.5,4,2.167s4.5,0.166,4,1.833s-1.333,2,1.167,2.167s7.167,1,7.167,1l2-2.167l3.333,0.667l2.5-2.333  l6.833,0.166l4.5-3.666l3.833,1.166l2.667-1l1.5-4.833l7.5,0.5l2.333,2.167l2.167-1.834l2.333,2.167"/>
  <path fill-rule="evenodd" clip-rule="evenodd" fill="none" stroke="#646464" stroke-width="1.5591" stroke-linejoin="round" stroke-miterlimit="3.8637" d="  M465.12,493.718c0,0,3.333,0.5,5.167-1s3.833-2.667,6-2.167s2.667,0.168,3.167-1.666s2.833-5.334,2.833-5.334l2.667,1"/>
  <path fill-rule="evenodd" clip-rule="evenodd" fill="none" stroke="#646464" stroke-width="1.5591" stroke-linejoin="round" stroke-miterlimit="3.8637" d="M 643.953 579.051 L 643.286 572.718 C 643.286 572.718 642.286 570.718 642.619 565.885 C 642.952 561.052 638.119 563.385 638.119 563.385 C 638.119 563.385 634.952 557.885 633.452 555.885 C 631.952 553.885 632.785 552.718 630.619 548.718 C 628.453 544.718 621.286 542.718 621.286 542.718 L 622.286 547.551 C 622.286 547.551 618.286 552.718 618.286 553.385 C 618.286 554.052 617.619 557.218 617.619 557.218 L 596.119 565.051 L 594.619 562.218 C 594.619 562.218 593.452 559.718 591.619 557.051 C 589.786 554.384 587.619 556.218 586.786 556.718 C 585.953 557.218 585.119 561.551 585.119 561.551 L 582.619 561.385 L 577.286 556.385 C 577.286 556.385 575.619 556.551 573.453 556.385 C 571.287 556.219 565.786 554.885 563.786 553.218 C 561.786 551.551 561.119 551.885 557.119 552.385 C 553.119 552.885 554.952 546.718 554.952 546.718 C 554.952 546.718 544.285 538.385 541.952 536.885 C 539.619 535.385 536.952 532.885 533.785 527.551 C 530.618 522.217 522.618 526.385 522.618 526.385 C 522.618 526.385 515.285 523.385 513.785 522.051 C 512.285 520.717 510.785 516.885 509.952 515.551 C 509.119 514.217 504.452 509.051 502.452 506.718 C 500.452 504.385 497.452 497.718 497.452 497.718 L 492.952 490.551 L 488.452 489.385 L 485.119 487.385 C 485.119 487.385 484.952 478.551 484.952 477.551 C 484.952 476.551 484.785 474.051 485.285 472.385 C 485.785 470.719 484.952 467.051 484.118 465.218 C 483.284 463.385 481.951 459.051 481.951 459.051 L 483.951 456.218 L 486.451 453.218 L 493.451 451.885 C 493.451 451.885 494.118 448.386 491.951 447.552 C 489.784 446.718 489.784 446.718 489.784 446.718 L 496.284 432.718 L 494.284 426.218 L 492.784 425.218 L 494.117 420.718 L 492.784 406.885 L 494.951 403.885 L 485.951 394.885 L 483.451 393.718 C 483.451 393.718 483.451 390.052 484.618 388.885 C 485.785 387.718 487.285 386.718 486.785 386.385 C 486.285 386.052 484.285 384.718 483.118 383.718 C 481.951 382.718 478.785 376.052 478.785 376.052 C 478.785 376.052 475.785 368.718 474.118 365.885 C 472.451 363.052 470.951 359.218 470.618 358.718 C 470.285 358.218 466.785 354.884 467.618 352.718 C 468.451 350.552 468.285 345.884 468.285 344.718 C 468.285 343.552 468.285 339.885 468.285 339.885 L 475.618 333.885 L 477.451 329.385 C 477.451 329.385 476.951 326.386 477.118 325.552 C 477.285 324.718 480.285 320.218 480.285 320.218 C 480.285 320.218 486.452 319.885 489.118 320.385 C 491.784 320.885 494.618 319.718 495.785 317.885 C 496.952 316.052 497.285 312.552 497.118 310.052 C 496.951 307.552 497.451 301.386 497.951 299.552 C 498.451 297.718 498.451 292.719 500.451 292.552 C 502.451 292.385 506.284 289.885 506.284 289.885 L 511.615 280.543"/>
  <path fill-rule="evenodd" clip-rule="evenodd" fill="none" stroke="#646464" stroke-width="1.5591" stroke-linejoin="round" stroke-miterlimit="3.8637" d="  M286.286,413.218l4.833-2.666c0,0,5,1.332,6.5,1.666s1.333-0.166,3.167-1.666s3.167-1.5,7-0.667s4.667,0.333,5.833-0.5  s2.5-1.333,2.5-1.333l6.333,1.666l4.5,2.5c0,0-2.833,4.5,1.333,3.667s10-2.667,10-2.667l-0.333,3.167c0,0-2.833,0.667-2.333,2  s0.5,4,0.5,4s2-2,4.833-2s6.833-0.333,6.833-0.333l8,7.5c0,0,6-4.667,7.667-5.667s1-5.667,1-5.667l4,0.167l7.333-3  c0,0-0.167-5.499-0.333-7.333s-1.833-7.667-1.833-7.667s5.833-0.999,7-1.833s3.5-1.834,3.5-1.834l2.833,3.667  c0,0,1.834-3.834,2.667-5.667s0.667-2.5,0.5-4.833s-0.667-4.167,1.5-4.5s3.5-1.499,3.167-2.333s-1.833-3.167-1.833-3.167"/>
  <path fill-rule="evenodd" clip-rule="evenodd" fill="none" stroke="#646464" stroke-width="1.5591" stroke-linejoin="round" stroke-miterlimit="3.8637" d="  M390.12,387.885l5.167-0.833l0.5,3l5.167,0.166l0.167-4c0,0,2,1.334,2.833,1.834s1.667,2,1.667,2l3.667-0.5c0,0,0,2.832,0.667,5.666  s-0.333,4.334-0.167,5.667s1,3.001,1.5,4.667s0.667,3.5,0.667,3.5l-1.667,5l-4.333-1.5c0,0,0.334,2.666,1.167,3.333  s2.333,2.667,2.333,2.667l-2.667,0.166c0,0,0.667,3.333,0,5.5s2.167,5.833,2.167,5.833s0,0,2.5-0.166s2,5.166,2,5.666  s2.833,0.334,2.833,0.334l4.167-0.334c0,0-1.333,5.167-2,6.167s-3,5.333-3.5,6.333s-0.333,5-0.333,5s6.667-0.165,10.667,2.001  s7.833,5,9.333,6.5s9.5,10.5,10.5,12.333s7.5,8.667,8.5,10s5.333,4.666,7,5.333s4,1.667,4,1.667l0.5,2.833  c0,0-1.667,7.334-2.333,9.667s-0.667,4.5-0.667,4.5l-1.667,2.667l-2.167,0.333c0,0,0.167,5.167,1.833,7.167s1.667,2,1.667,2  l-0.333,4.166c0,0,1.833,3.167,2.167,6.667s0.167,5.667-1.167,9.167s-3.333,8-4,8.333s-3.5,2.5-2.333,6.5s2.333,6.666,2.333,6.666  l1.833,0.5c0,0-2,5.501,0.667,7.334"/>
  <path fill-rule="evenodd" clip-rule="evenodd" fill="none" stroke="#646464" stroke-width="1.5591" stroke-linejoin="round" stroke-miterlimit="3.8637" d="  M258.62,355.552c0,0,1.833-4.167,4.333-4.834s9-5.833,9.333-6.5s1.833-2.667,1.833-2.667l-1.833-4.833c0,0,2.167-2.499,0.833-4.833  s-0.667-5,1.167-6.5s4.5-3.5,4.5-3.5v-1.5l-3-0.334l0.333-4.333l10.167,2c0,0,0.5-4.833,3.167-5s2.333-1.167,3.667-2.5s9.5-9,9.5-9  l9.333-3.667l6.407-3.617"/>
  <path fill-rule="evenodd" clip-rule="evenodd" fill="none" stroke="#646464" stroke-width="1.5591" stroke-linejoin="round" stroke-miterlimit="3.8637" d="  M360.775,329.151c0,0,3.844-4.767,6.344-5.267s9.167-4.166,10.667-5s6.5-3.834,6.5-3.834l-0.167-3.333c0,0,4.667-3.499,5.833-2.833  s1.167,0.666,1.167,0.666l4.333-1.833l-1.167-3.167c0,0,5-4,5.667-4s6.667,2.501,8.667,3.834s3.833,3.333,5.333,3.833  s6.166,3.666,7.833,3.833s5,1,5,1l3.833,7.167c0,0,6.167,3.834,3.5,4.667s-2.5,1.832-2.167,3.166s0.833,13.5,0.833,13.5  l-7.667,14.334l-5.667,0.833l-6,7.167l-2.333-0.167l-1,1.833l-4.5-0.666c0,0-0.167,3.5-3.667,3.833s-7.667,0-7.667,0  s3.5,3.499,3.5,5.333s-2.333,4.167-2.333,4.167s-2.167-0.999-5,0.667s-6.167,0.333-6.167,0.333l-0.5,3.833l-4-2.833  c0,0-4,3.833-5.333,3.833s-2.667,1.334-4-0.666s-3.5-4-3.5-4s-5.167,0.667-5.5,2s-4.333,2.833-4.333,2.833l-3.5-0.167l3.833-6  l-5.5-0.166l-5.667,8.333c0,0-2.166-3.5-4.833-3s-4.667,1.5-4.667,1.5l-5.667-3.167l-8.5,3l-0.333-3.666"/>
  <path fill-rule="evenodd" clip-rule="evenodd" fill="none" stroke="#646464" stroke-width="1.5591" stroke-linejoin="round" stroke-miterlimit="3.8637" d="  M312.526,285.334c1.252,1.799,2.696,3.408,4.063,5.247c0.983,1.321,1.507,2.373,1.771,3.353c0.344,1.274,0.365,2.428,1.59,3.897  l0.339,0.295c1.341,0.835,2.919,0.475,4.356,0.271c1.748,2.834,3.088,4.466,4.574,5.753l0.862,0.707  c0.517,0.351,1.104,0.719,1.802,1.15c0.76,0.47,1.667,1.03,2.788,1.76c0.258,0.168,0.513,0.315,0.765,0.459  c0.454,0.26,0.812,0.464,1.125,0.777c0.594,0.595,1.069,1.384,1.571,2.22c0.471,0.784,0.959,1.596,1.599,2.341  c0.218,0.254,0.519,0.423,0.849,0.477c0.905,0.146,2.017,0.115,3.048-0.077c0.421,0.281,0.873,1.136,1.02,1.986  c0.066,0.385,0.288,0.725,0.612,0.94c0.324,0.215,0.724,0.288,1.104,0.2l1.284-0.296c1.137,0.378,1.941,1.676,2.789,3.044  c0.489,0.789,0.994,1.604,1.599,2.28c1.116,1.246,2.663,2.169,4.159,3.062c1.979,1.181,3.848,2.296,4.58,3.971  c0.256,0.585,0.392,1.224,0.446,1.886l-0.102,0.681l-3,5.167c0,0-6,7.667-6.667,9.167s-6.333,12.666-6.5,13.333  s-0.333,6.167-1.167,6.667s-3.167,5.5-3.5,6.666s-1.167,4-4.667,5.834s-6.333-1.5-6.333-1.5s-3.833,4.166-8,4.166  s-4.167,0.667-5.167,1.167s-10.667,12.167-10.667,12.167l-1.5,3c0,0-4.167,3.333-7,4.333s-5.833,8.667-5.833,8.667"/>
  <path fill-rule="evenodd" clip-rule="evenodd" fill="none" stroke="#646464" stroke-width="1.5591" stroke-linejoin="round" stroke-miterlimit="3.8637" d="M 461.953 230.885 C 461.953 230.885 458.12 231.218 456.953 232.218 C 455.786 233.218 457.12 234.218 455.12 237.051 C 453.12 239.884 450.287 235.885 450.287 235.885 C 450.287 235.885 447.454 236.718 444.954 236.885 C 442.454 237.052 441.787 234.885 439.954 233.551 C 438.121 232.217 434.287 234.551 434.287 234.551 C 434.287 234.551 432.787 233.385 431.787 232.551 C 430.787 231.717 426.62 230.218 426.454 231.218 C 426.288 232.218 426.787 236.551 426.787 236.551 L 419.287 238.718 L 416.454 241.885 C 416.454 241.885 413.454 240.718 411.287 239.051 C 409.12 237.384 405.287 233.385 403.454 232.551 C 401.621 231.717 399.621 228.551 398.954 227.051 C 398.287 225.551 397.954 224.551 394.287 223.885 C 390.62 223.219 390.62 221.885 389.12 220.218 C 387.62 218.551 386.787 217.051 384.953 216.551 C 383.119 216.051 380.12 215.218 377.453 215.218 C 374.786 215.218 374.286 213.218 373.786 212.718 C 373.286 212.218 371.786 210.551 370.286 211.385 C 368.786 212.219 362.953 213.885 361.119 219.218 C 359.285 224.551 364.786 227.551 364.786 227.551 L 361.619 234.218 L 353.452 237.718 L 351.785 241.218 C 351.785 241.218 341.618 242.718 339.452 243.051 C 337.286 243.384 333.785 249.551 333.785 249.551 L 330.285 249.551 C 330.285 249.551 328.952 246.718 326.785 244.218 C 324.618 241.718 322.452 240.051 319.618 239.885 C 316.784 239.719 317.118 239.718 315.451 238.218 C 313.784 236.718 311.618 237.385 311.618 237.385 C 311.618 237.385 312.618 246.052 312.785 248.052 C 312.952 250.052 311.285 254.386 311.285 256.052 C 311.285 257.718 310.618 259.552 310.618 259.552 L 307.785 258.718 C 307.785 258.718 308.618 261.718 310.618 262.885 C 312.618 264.052 312.618 266.051 311.451 266.718 C 310.284 267.385 310.451 270.384 312.118 272.718 C 313.785 275.052 316.785 280.052 316.785 280.052 C 316.785 280.052 321.619 284.051 321.952 285.718 C 322.285 287.385 325.119 288.052 325.119 288.052 L 326.286 286.552 C 326.286 286.552 332.786 298.552 333.619 299.552 C 334.452 300.552 336.952 302.051 338.286 301.218 C 339.62 300.385 338.119 297.386 337.286 296.552 C 336.453 295.718 335.619 293.885 335.619 293.885 L 338.119 286.718 L 341.452 287.385 C 341.452 287.385 340.452 291.218 342.619 291.885 C 344.786 292.552 346.119 292.385 346.119 292.385 L 345.786 295.885 C 345.786 295.885 352.453 299.718 352.453 298.885 C 352.453 298.052 354.286 290.552 354.286 290.552 L 356.953 290.052 L 356.786 284.718 C 356.786 284.718 358.953 283.219 360.453 284.552 C 361.953 285.885 364.12 285.719 365.953 285.552 C 367.786 285.385 369.786 282.052 369.786 282.052 C 369.786 282.052 366.453 278.552 369.119 278.385 C 371.785 278.218 372.286 279.552 373.286 281.052 C 374.286 282.552 373.953 282.219 375.953 283.052 C 377.953 283.885 384.12 288.219 386.12 288.552 C 388.12 288.885 391.62 286.886 393.787 286.552 C 395.954 286.218 399.454 287.552 399.454 287.552 L 411.621 287.385 L 413.621 283.718 L 411.454 280.052 L 417.454 278.052 C 417.454 278.052 421.454 279.385 422.621 279.885 C 423.788 280.385 425.454 280.218 425.621 277.218 C 425.788 274.218 427.954 270.885 431.621 270.218 C 435.288 269.551 439.621 267.051 439.621 267.051 L 441.121 265.051 L 444.954 266.551 C 444.954 266.551 445.787 268.885 447.787 269.385 C 449.787 269.885 452.787 272.218 454.287 273.218 C 455.787 274.218 456.62 275.885 459.787 275.885 C 462.954 275.885 463.62 278.384 466.287 277.051 C 468.954 275.718 469.287 275.384 469.787 274.051 C 470.287 272.718 471.454 269.885 471.454 269.885 L 482.621 276.885 L 489.285 270.618"/>
  <path fill-rule="evenodd" clip-rule="evenodd" fill="none" stroke="#646464" stroke-width="1.5591" stroke-linejoin="round" stroke-miterlimit="3.8637" d="  M417.12,309.385l-1.333-3.167c0,0-2.667-2.666-1.667-4.833s0.833-3.334-1-5.667s-4.667-3.5-4.667-3.5l-3-0.333l0.667-4.5"/>
  <path fill-rule="evenodd" clip-rule="evenodd" fill="none" stroke="#646464" stroke-width="1.5591" stroke-linejoin="round" stroke-miterlimit="3.8637" d="  M165.018,264.076c0,0,3.602,2.476,9.102,2.976s2.167-2.166,6.667-3s5.167-1.666,7.333,0s3.333,2.833,7,3.333s7-0.001,7.167-3.167  s0-6.666,0-6.666l2.833-0.834l5.167-8.333l6.833-2.833c0,0,4,0.167,5.833-1s3.333-2,6.333-2.167s5.667,0.667,5.667,0.667l1.333,3  c0,0,6.667-3.166,8.667-4.5s7.334-8.834,7.167-12.834s0.833-7.666,3-9.333s2.333-1.834,3.833-1.667s4.833,1.334,4.833,1.334  s1.167-6.333,3.833-7s3.333-1,0.833-3s-2.833-5.334-0.833-4.334s4.333,2.166,4.833,0s0.833-4,0.833-4s-1-3.333,2.5-4.333  s2.167-3.167,5.667-4.667s7-4.499,7.167-6.833s-1.834-5.667-1.667-8.667s0.5-6.833,4-10s3.667-11.333,4-11.833s2.5-4.999,2.5-6.333  s2.5-7.667,2.5-7.667"/>
  <path fill-rule="evenodd" clip-rule="evenodd" fill="none" stroke="#646464" stroke-width="1.5591" stroke-linejoin="round" stroke-miterlimit="3.8637" d="  M263.786,219.052c0,0-0.666,2.333,3.167,1.833s5.167-1,5.167-1s1.5-4.166,4.667-4s3.833,2.166,4.833,3.833s1,3.167,3,4.667  s3.333,5,3.333,5s-5.167,21.167-5.167,22.5s-0.5,4.332,0.5,6.166s3.833,7.334,4.5,9.167s1.167,3.833,1.167,3.833v2.167l2.5-0.667  l1.833-3.166l3.833,0.5c0,0,1.667,3.166-0.333,4.166s-4.333,2.666-4.333,4.5s0.833,3.334,0.833,3.334l13.5-1.333l0.167,4.333  l5.573,0.449l7.927-2.116"/>
  <path style="stroke: rgb(0, 0, 0); fill: none; stroke-width: 6px;" d="M 360.867 155.812 C 360.867 155.812 374.236 165.691 374.334 165.691 C 374.432 165.691 381.155 168.283 381.155 168.283 C 381.155 168.283 389.47 171.404 389.42 171.404 C 389.37 171.404 393.228 171.04 393.228 171.04 L 399.516 168.452 L 404.261 167.362 C 404.261 167.362 416.572 166.057 416.474 166.057 C 416.376 166.057 422.575 166.814 422.575 166.814 C 422.575 166.814 426.31 169.101 426.407 169.101 C 426.504 169.101 430.955 169.653 430.955 169.653 C 430.955 169.653 435.168 169.839 435.266 169.839 C 435.364 169.839 440.059 170.76 440.059 170.76 C 440.059 170.76 441.044 172.278 441.141 172.278 C 441.238 172.278 440.955 174.798 440.955 174.798 L 439.981 176.342 L 440.005 178.095 L 441.053 180.686 C 441.053 180.686 442.64 181.507 442.737 181.507 C 442.834 181.507 446.574 183.477 446.574 183.477 L 451.581 186.297 L 458.753 188.614 C 459.589 188.549 462.645 192.423 462.335 192.447"/>
</svg>